<?xml version="1.0" encoding="UTF-8" standalone="no"?>
<!-- Created with Inkscape (http://www.inkscape.org/) -->

<svg
   xmlns:dc="http://purl.org/dc/elements/1.1/"
   xmlns:cc="http://creativecommons.org/ns#"
   xmlns:rdf="http://www.w3.org/1999/02/22-rdf-syntax-ns#"
   xmlns:svg="http://www.w3.org/2000/svg"
   xmlns="http://www.w3.org/2000/svg"
   xmlns:xlink="http://www.w3.org/1999/xlink"
   xmlns:sodipodi="http://sodipodi.sourceforge.net/DTD/sodipodi-0.dtd"
   xmlns:inkscape="http://www.inkscape.org/namespaces/inkscape"
   width="297mm"
   height="210mm"
   viewBox="0 0 1052.3622 744.09448"
   id="svg2"
   version="1.1"
   inkscape:version="0.91 r13725"
   sodipodi:docname="logo.svg"
   inkscape:export-filename="/home/pal155/src/ag-bie/web-app/images/logo.png"
   inkscape:export-xdpi="13.278024"
   inkscape:export-ydpi="13.278024">
  <defs
     id="defs4">
    <linearGradient
       inkscape:collect="always"
       id="tree">
      <stop
         style="stop-color:#d6d3ca;stop-opacity:1"
         offset="0"
         id="stop4158" />
      <stop
         style="stop-color:#6bad5f;stop-opacity:0.44313726"
         offset="1"
         id="stop4160" />
    </linearGradient>
    <linearGradient
       inkscape:collect="always"
       xlink:href="#tree"
       id="linearGradient4162"
       x1="412.66299"
       y1="655.76825"
       x2="524.763"
       y2="5.2300315"
       gradientUnits="userSpaceOnUse" />
  </defs>
  <sodipodi:namedview
     id="base"
     pagecolor="#857d6f"
     bordercolor="#666666"
     borderopacity="1.0"
     inkscape:pageopacity="1"
     inkscape:pageshadow="2"
     inkscape:zoom="0.98994949"
     inkscape:cx="572.42214"
     inkscape:cy="387.12388"
     inkscape:document-units="px"
     inkscape:current-layer="layer1"
     showgrid="false"
     inkscape:window-width="1920"
     inkscape:window-height="1144"
     inkscape:window-x="1680"
     inkscape:window-y="0"
     inkscape:window-maximized="1" />
  <metadata
     id="metadata7">
    <rdf:RDF>
      <cc:Work
         rdf:about="">
        <dc:format>image/svg+xml</dc:format>
        <dc:type
           rdf:resource="http://purl.org/dc/dcmitype/StillImage" />
        <dc:title />
      </cc:Work>
    </rdf:RDF>
  </metadata>
  <g
     inkscape:label="Layer 1"
     inkscape:groupmode="layer"
     id="layer1"
     transform="translate(0,-308.26772)">
    <path
       style="fill:url(#linearGradient4162);fill-rule:evenodd;stroke:none;stroke-width:1px;stroke-linecap:butt;stroke-linejoin:miter;stroke-opacity:1;fill-opacity:1"
       d="m 479.82302,4.6629018 c 0,0 -0.18856,22.5690212 2.01953,29.2949212 3.85183,11.73276 5.01797,24.188115 7.07032,36.365235 1.97854,11.7392 -2.28601,26.484126 -2.02029,38.385922 0.3096,13.86751 -2.15893,27.67307 -4.03906,41.41602 -1.57574,11.518 -2.29813,23.34608 -6.06055,34.3457 -2.3398,6.84053 -4.76541,14.3136 -10.10156,19.19141 -3.23088,2.95337 -7.79486,5.7048 -12.12305,5.05078 -5.20066,-0.78586 -8.82008,-6.00672 -12.12109,-10.10156 -5.48226,-6.80064 -8.62546,-15.228 -12.12305,-23.23242 -4.00856,-9.17378 -14.64323,-19.36328 -10.10156,-28.28516 2.70679,-5.31735 12.16377,-1.81036 17.17382,-5.05078 5.21335,-3.37191 10.23308,-8.22589 12.1211,-14.14063 3.39289,-10.62912 -1.9081,-22.23491 -3.0293,-33.335934 -0.6128,-6.06735 -2.43073,-12.099123 -2.02148,-18.183594 0.27951,-4.155579 2.52236,-7.987333 3.03125,-12.121093 1.1931,-9.69164 0,-29.294922 0,-29.294922 0,0 -0.92743,9.508058 -2.02149,14.142578 -0.97856,4.14524 -1.96636,8.400274 -4.03906,12.121094 -1.2798,2.29744 -2.59613,5.11867 -5.05078,6.0625 -2.22233,0.8545 -5.14074,0.380451 -7.07227,-1.011719 -2.44321,-1.76097 -2.86412,-5.307848 -4.04101,-8.080078 -4.74418,-11.1752 -12.1211,-34.345703 -12.1211,-34.345703 0,0 0.9746,12.175574 2.01954,18.183593 1.2455,7.16123 2.49625,14.407831 5.05078,21.212891 2.54079,6.76845 6.8012,12.76101 10.10156,19.193359 3.09342,6.029021 7.23767,11.663931 9.0918,18.181638 2.0353,7.15447 3.40066,14.91525 2.02148,22.22461 -0.55841,2.95947 -1.63167,6.27306 -4.04102,8.08008 -3.01169,2.25877 -7.35617,2.28835 -11.11132,2.02148 -5.31057,-0.3774 -11.47041,-1.20527 -15.15235,-5.05078 -5.08589,-5.31182 -4.61803,-14.00407 -6.0625,-21.21484 -2.26419,-11.3028 -2.8437,-22.87854 -4.03906,-34.34375 -0.77134,-7.39823 -1.78219,-14.790129 -2.02148,-22.224609 -0.41176,-12.79307 1.00976,-38.384766 1.00976,-38.384766 0,0 -4.89876,7.755504 -6.06055,12.121094 -4.59686,17.27339 -3.31048,35.666682 -3.02929,53.539062 0.1808,11.49145 0.9877,23.033659 3.02929,34.343749 1.79941,9.96844 4.90283,19.67721 8.08204,29.29492 3.51298,10.62744 7.98908,20.91206 12.12109,31.31446 3.62401,9.12351 6.9023,18.40657 11.11133,27.27539 3.61786,7.62318 8.78955,14.4709 12.12304,22.22265 4.75352,11.0539 8.02788,22.71485 11.11133,34.34571 2.11534,7.97909 4.36882,16.01567 5.05078,24.24218 0.696,8.39587 1.93721,17.36148 -1.00976,25.25391 -3.01675,8.07933 -8.07674,17.20258 -16.16211,20.20312 -5.13891,1.9071 -11.84987,0.35199 -16.16406,-3.02929 -9.6067,-7.52933 -11.66633,-21.63862 -15.15235,-33.33594 -3.7947,-12.73306 -2.30383,-26.65021 -6.06054,-39.39453 -3.96335,-13.44534 -15.81528,-24.4352 -17.17188,-38.38672 -0.43477,-4.47128 1.81255,-8.80836 3.0293,-13.13281 2.30719,-8.19995 8.26187,-15.72573 8.08203,-24.24219 -0.15975,-7.5651 -4.20357,-14.71763 -8.08203,-21.21484 -5.01698,-8.40446 -15.19105,-13.28946 -19.19141,-22.22266 -3.192,-7.12804 -3.611,-15.44386 -3.03125,-23.23242 0.36393,-4.88916 4.32042,-9.247869 4.04102,-14.142579 -0.60225,-10.55061 -12.1211,-29.294922 -12.1211,-29.294922 0,0 4.59519,17.423492 4.03907,26.263672 -0.1539,2.4465 -0.15803,5.477325 -2.01954,7.072265 -2.06151,1.76629 -5.45399,1.690236 -8.08203,1.009766 -10.49698,-2.71794 -26.26367,-19.19336 -26.26367,-19.19336 0,0 13.8425,14.026727 19.19336,22.222658 8.56296,13.11592 13.22982,28.40188 20.20313,42.42773 4.55913,9.17004 12.70868,17.13346 14.14257,27.27344 0.9616,6.80006 -0.21954,14.49683 -4.04101,20.20313 -2.02664,3.02623 -5.45668,5.83423 -9.0918,6.06054 -9.01762,0.56142 -17.35987,-6.26963 -24.24414,-12.12109 -5.69659,-4.84196 -9.63126,-11.5769 -13.13086,-18.18359 -3.68965,-6.96549 -5.37839,-14.81848 -8.08203,-22.22266 -3.69038,-10.10647 -11.11133,-30.30469 -11.11133,-30.30469 0,0 0.11777,26.552 3.03125,39.39649 2.47598,10.91572 7.28213,21.22149 12.1211,31.31445 3.19592,6.66593 6.1394,13.72266 11.11132,19.19336 5.84437,6.43067 14.49819,9.63663 21.21289,15.15234 6.07418,4.98956 12.72699,9.68006 17.17383,16.16211 5.55345,8.09513 8.74663,17.74558 11.11133,27.27344 2.44539,9.85299 5.08312,20.3627 3.0293,30.30469 -1.4027,6.79007 -5.40116,13.08665 -10.10157,18.18359 -4.11521,4.4624 -9.47469,7.94877 -15.15039,10.10156 -9.21655,3.49583 -19.43863,4.17747 -29.29492,4.03906 -14.33579,-0.2013 -31.25898,1.91938 -42.42773,-7.07031 -8.47532,-6.82175 -7.43297,-20.48691 -12.1211,-30.30469 -4.15739,-8.70632 -9.98518,-16.54758 -14.14257,-25.2539 -2.34406,-4.90889 -7.99376,-10.0676 -6.06055,-15.15234 2.94332,-7.74151 15.8971,-5.76517 22.22266,-11.11133 8.28153,-6.99928 16.18521,-15.84616 19.19336,-26.26367 2.71541,-9.4038 -0.72035,-19.59353 -2.01954,-29.29493 -1.13947,-8.50869 -2.43681,-17.0769 -5.05078,-25.2539 -3.25841,-10.1929 -14.88789,-18.73879 -13.13281,-29.29493 1.13313,-6.81531 11.93239,-8.60654 14.14258,-15.15234 2.1651,-6.41228 -0.007,-13.741314 -2.01953,-20.203124 -3.31618,-10.64798 -8.8462,-20.877198 -16.16407,-29.292968 -5.52359,-6.352291 -20.20117,-15.152344 -20.20117,-15.152344 0,0 13.40037,19.538307 18.18164,30.304687 3.28561,7.39849 8.77127,15.317902 7.07032,23.232419 -1.50417,6.9989 -7.86621,12.71555 -14.14063,16.16211 -3.88175,2.13226 -8.91362,3.36795 -13.13281,2.02149 -15.19897,-4.85042 -34.3457,-33.335941 -34.3457,-33.335941 -10e-6,0 9.3694,19.814831 16.16406,28.285161 6.26436,7.80926 15.64373,12.65695 22.22265,20.20312 9.39042,10.77102 19.66567,21.81913 24.24414,35.35547 4.21306,12.45603 6.7387,27.1213 2.01954,39.39453 -2.22171,5.77806 -7.58301,10.39025 -13.13282,13.13281 -4.56811,2.25744 -10.06846,2.39053 -15.15039,2.01953 -7.3345,-0.53544 -15.93375,-0.94275 -21.21484,-6.06054 -6.34708,-6.15082 -8.08008,-21.2133 -8.08008,-25.25391 0,-4.04061 -2.10083,-17.19203 -5.05078,-25.2539 -3.83232,-10.4733 -10.69052,-19.57504 -16.16211,-29.29297 -8.95439,-15.90363 -18.9187,-31.25285 -27.27539,-47.478519 -8.14057,-15.80604 -22.22266,-48.486329 -22.22266,-48.486329 0,0 6.18082,34.906209 12.1211,51.517579 6.43973,18.008039 16.87308,34.326839 25.2539,51.517579 5.41147,11.10001 13.22665,21.33909 16.16211,33.33398 2.80259,11.45198 -1.52353,23.84136 1.01172,35.35547 2.20571,10.0175 6.28749,19.84808 12.12109,28.28516 6.90721,9.98981 18.93796,15.56682 26.26368,25.2539 6.90543,9.13131 13.84944,19.09232 16.16211,30.30469 0.81907,3.97102 1.4676,8.91134 -1.00977,12.1211 -3.70893,4.80541 -11.20874,4.92511 -17.17187,6.06054 -8.93704,1.70169 -18.26366,2.2588 -27.27539,1.01172 -10.86437,-1.50346 -23.19261,-2.73065 -31.31446,-10.10156 -8.15242,-7.39865 -9.0592,-20.07613 -13.13086,-30.30469 -2.91523,-7.32345 -6.05197,-14.60816 -8.08203,-22.22461 -2.0245,-7.59558 -5.27284,-15.46879 -4.04101,-23.23242 1.01497,-6.39687 7.1853,-10.98389 9.09179,-17.17383 2.69254,-8.74207 5.49333,-18.46369 3.03125,-27.27344 -2.9729,-10.63754 -20.20312,-26.26367 -20.20312,-26.26367 0,0 8.92148,17.65064 10.10156,27.27344 1.11343,9.0793 0.65471,18.90358 -3.03125,27.27539 -1.44232,3.2759 -3.81083,6.60103 -7.07031,8.08008 -3.06626,1.39137 -7.09516,1.51637 -10.10156,0 -8.59854,-4.33692 -12.92087,-14.59204 -17.17383,-23.23242 -5.41281,-10.99674 -10.10157,-35.35547 -10.10157,-35.35547 0,0 -0.47022,24.05728 3.03125,35.35547 3.43703,11.09027 11.08557,20.41711 17.17188,30.30468 6.36406,10.33881 15.90628,18.94803 20.20312,30.30274 2.64607,6.99243 5.26357,15.08931 3.03125,22.22461 -1.63665,5.23132 -5.92057,10.36 -11.11132,12.12109 -5.50447,1.86753 -12.13219,-0.13643 -17.17383,-3.02929 -12.63959,-7.25253 -20.49635,-21.01834 -28.28321,-33.33594 -16.186303,-25.60424 -37.376948,-82.83203 -37.376948,-82.83203 0,0 12.513967,57.21896 24.24414,83.84179 8.591932,19.50027 18.229898,39.51921 33.335938,54.54883 13.38627,13.31855 30.68096,23.00647 48.48633,29.29492 28.19838,9.95903 59.11768,9.35156 88.89453,12.1211 20.14136,1.87335 40.57445,0.24101 60.60937,3.03125 17.79772,2.47867 36.1717,4.67829 52.52735,12.12109 15.14195,6.89049 28.99358,17.19086 40.40625,29.29492 9.86813,10.46596 19.29843,22.52906 23.23242,36.36524 6.35473,22.35009 1.9963,46.66049 -1.00977,69.70117 -2.87375,22.02647 -1.55464,47.91386 -16.16211,64.64844 -11.9242,13.66059 -34.65275,11.40452 -50.50781,20.20312 -10.9531,6.07831 -20.59667,14.30815 -30.30469,22.22461 -7.39008,6.02629 -15.87457,11.29001 -21.21289,19.19141 -3.81689,5.64948 -5.13679,12.65526 -7.07031,19.19336 -3.03472,10.26172 -7.07226,31.31445 -7.07226,31.31445 0,0 10.60246,-20.07694 17.17382,-29.29297 5.40688,-7.5829 10.79098,-15.54802 18.18164,-21.21484 6.81255,-5.22354 14.81294,-9.44536 23.23438,-11.11133 5.95486,-1.17802 15.13481,-4.24047 18.18164,1.00976 1.51165,2.60484 -2.65883,5.40625 -4.04102,8.08204 -2.62706,5.08576 -5.66663,9.9618 -8.08007,15.15234 -3.05806,6.57693 -8.08203,20.20312 -8.08203,20.20312 0,0 8.93539,-15.58653 15.15234,-13.13281 2.72087,1.07389 3.37765,5.13935 3.29297,9.25391 0.84874,-5.55068 2.11384,-12.16248 3.77929,-16.32422 2.08213,-5.20295 6.02022,-9.45395 9.08985,-14.14258 1.99499,-3.04719 2.99557,-7.1273 6.0625,-9.0918 5.45396,-3.49349 12.71518,-3.12239 19.19141,-3.02929 5.4808,0.0788 13.20506,-1.58478 16.16406,3.02929 1.49891,2.33731 -1.68223,5.3262 -2.02149,8.08204 -0.6994,5.68131 -0.59281,11.47845 0,17.17187 0.67708,6.50272 4.04102,19.19336 4.04102,19.19336 0,0 1.73947,-12.84659 3.03125,-19.19336 1.10757,-5.44172 1.43095,-11.25938 4.03906,-16.16211 2.12756,-3.99938 4.95358,-8.25855 9.0918,-10.10156 12.20892,-5.4374 37.11474,-1.91505 45.46289,-0.52149 l 0,0.52149 c 0,0 0.54583,-0.10599 1.51172,-0.27539 0.96674,0.16955 1.51367,0.27539 1.51367,0.27539 l 0,-0.52149 c 8.34815,-1.39356 33.25396,-4.91591 45.46289,0.52149 4.13822,1.84301 6.96228,6.10218 9.08984,10.10156 2.60811,4.90273 2.93345,10.72039 4.04102,16.16211 1.29178,6.34677 3.03125,19.19336 3.03125,19.19336 0,0 3.36198,-12.69064 4.03906,-19.19336 0.59281,-5.69342 0.6994,-11.49056 0,-17.17187 -0.33926,-2.75584 -3.51844,-5.74473 -2.01953,-8.08204 2.959,-4.61407 10.68131,-2.95051 16.16211,-3.02929 6.47622,-0.0931 13.7394,-0.4642 19.19336,3.02929 3.06693,1.9645 4.06556,6.04461 6.06055,9.0918 3.06963,4.68863 7.00967,8.93963 9.09179,14.14258 1.6636,4.1571 2.92862,10.75978 3.77735,16.30664 -0.0824,-4.10855 0.57597,-8.16397 3.29297,-9.23633 6.21695,-2.45372 15.15234,13.13281 15.15234,13.13281 0,0 -5.02202,-13.62619 -8.08008,-20.20312 -2.41344,-5.19054 -5.45496,-10.06658 -8.08203,-15.15234 -1.38219,-2.67579 -5.55267,-5.4772 -4.04102,-8.08204 3.04683,-5.25023 12.22874,-2.18778 18.1836,-1.00976 8.42144,1.66597 16.42183,5.88779 23.23437,11.11133 7.39066,5.66682 12.77476,13.63194 18.18164,21.21484 6.57136,9.21603 17.17188,29.29297 17.17188,29.29297 0,0 -4.03559,-21.05273 -7.07031,-31.31445 -1.93352,-6.5381 -3.25343,-13.54388 -7.07032,-19.19336 -5.33832,-7.9014 -13.8228,-13.16512 -21.21289,-19.19141 -9.70802,-7.91646 -19.35158,-16.1463 -30.30468,-22.22461 -15.85506,-8.7986 -38.58362,-6.54253 -50.50782,-20.20312 -14.60747,-16.73458 -13.28836,-42.62197 -16.16211,-64.64844 -3.00607,-23.04068 -7.36643,-47.35108 -1.01171,-69.70117 3.93398,-13.83618 -6.12304,-15.19808 23.23437,-36.36524 13.4942,-9.72953 25.2643,-22.40443 40.40625,-29.29492 16.35565,-7.4428 34.72962,-9.64242 52.52734,-12.12109 20.03492,-2.79024 40.46802,-1.1579 60.60938,-3.03125 29.77685,-2.76954 60.6942,-2.16207 88.89258,-12.1211 17.80538,-6.28845 35.10201,-15.97637 48.48828,-29.29492 15.10604,-15.02962 24.74205,-35.04856 33.33398,-54.54883 11.73018,-26.62283 24.24414,-83.84179 24.24414,-83.84179 0,0 -21.18869,57.22779 -37.375,82.83203 -7.78685,12.3176 -15.64556,26.08341 -28.28515,33.33594 -5.04164,2.89286 -11.66741,4.89682 -17.17188,3.02929 -5.19075,-1.76109 -9.47468,-6.88977 -11.11133,-12.12109 -2.23232,-7.1353 0.38323,-15.23218 3.0293,-22.22461 4.29684,-11.35471 13.83908,-19.96393 20.20313,-30.30274 6.08631,-9.88757 13.73679,-19.21441 17.17382,-30.30468 3.50147,-11.29819 3.0293,-35.35547 3.0293,-35.35547 0,0 -4.68875,24.35873 -10.10156,35.35547 -4.25296,8.64038 -8.57335,18.8955 -17.17188,23.23242 -3.00641,1.51637 -7.0353,1.39137 -10.10156,0 -3.25948,-1.47905 -5.62799,-4.80418 -7.07031,-8.08008 -3.68596,-8.37181 -4.14468,-18.19609 -3.03125,-27.27539 1.18008,-9.6228 10.10156,-27.27344 10.10156,-27.27344 0,0 -17.23022,15.62613 -20.20312,26.26367 -2.46208,8.80975 0.33871,18.53137 3.03125,27.27344 1.90649,6.18994 8.07487,10.77696 9.08984,17.17383 1.23183,7.76363 -2.01455,15.63684 -4.03906,23.23242 -2.03006,7.61645 -5.1668,14.90116 -8.08203,22.22461 -4.07166,10.22856 -4.9804,22.90604 -13.13282,30.30469 -8.12185,7.37091 -20.45009,8.5981 -31.31445,10.10156 -9.01173,1.24708 -18.3364,0.68997 -27.27344,-1.01172 -5.96313,-1.13543 -13.46294,-1.25513 -17.17187,-6.06054 -2.47737,-3.20976 -1.83079,-8.15008 -1.01172,-12.1211 2.31267,-11.21237 9.25863,-21.17338 16.16406,-30.30469 7.32572,-9.68708 19.35647,-15.26409 26.26367,-25.2539 5.83361,-8.43708 9.91539,-18.26766 12.1211,-28.28516 2.53525,-11.51411 -1.79283,-23.90349 1.00976,-35.35547 2.93546,-11.99489 10.75064,-22.23397 16.16211,-33.33398 8.38082,-17.19074 18.81418,-33.50955 25.25391,-51.517579 5.94029,-16.61137 12.12304,-51.517579 12.12304,-51.517579 0,0 -14.08403,32.680289 -22.2246,48.486329 -8.35669,16.225669 -18.31905,31.574889 -27.27344,47.478519 -5.47159,9.71793 -12.32979,18.81967 -16.16211,29.29297 -2.94995,8.06187 -5.05078,21.21329 -5.05078,25.2539 0,4.04061 -1.73495,19.10309 -8.08203,25.25391 -5.28109,5.11779 -13.87839,5.5251 -21.21289,6.06054 -5.08193,0.371 -10.58424,0.23791 -15.15235,-2.01953 -5.54981,-2.74256 -10.90915,-7.35475 -13.13086,-13.13281 -4.71916,-12.27323 -2.19353,-26.9385 2.01953,-39.39453 4.57847,-13.53634 14.85372,-24.58445 24.24414,-35.35547 6.57892,-7.54617 15.9583,-12.39386 22.22266,-20.20312 6.79466,-8.47032 16.16211,-28.285161 16.16211,-28.285161 0,0 -19.14478,28.485521 -34.34375,33.335941 -4.21919,1.34646 -9.25106,0.11077 -13.13281,-2.02149 -6.27442,-3.44656 -12.63841,-9.16321 -14.14258,-16.16211 -1.70095,-7.914517 3.78666,-15.833929 7.07226,-23.232419 4.78127,-10.76638 18.18165,-30.304687 18.18165,-30.304687 0,0 -14.67954,8.800053 -20.20313,15.152344 -7.31787,8.41577 -12.84593,18.644988 -16.16211,29.292968 -2.01245,6.46181 -4.18463,13.790854 -2.01953,20.203124 2.21019,6.5458 13.0075,8.33703 14.14062,15.15234 1.75509,10.55614 -9.87244,19.10203 -13.13085,29.29493 -2.61397,8.177 -3.91132,16.74521 -5.05079,25.2539 -1.29919,9.7014 -4.7369,19.89113 -2.02148,29.29493 3.00814,10.41751 10.91183,19.26439 19.19336,26.26367 6.32556,5.34616 19.28129,3.36982 22.22461,11.11133 1.93321,5.08474 -3.71844,10.24345 -6.0625,15.15234 -4.15739,8.70632 -9.98324,16.54758 -14.14063,25.2539 -4.68813,9.81778 -3.64772,23.48294 -12.12304,30.30469 -11.16875,8.98969 -28.08999,6.86901 -42.42578,7.07031 -9.85629,0.13841 -20.07838,-0.54323 -29.29493,-4.03906 -5.6757,-2.15279 -11.03712,-5.63916 -15.15234,-10.10156 -4.7004,-5.09694 -8.69886,-11.39352 -10.10156,-18.18359 -2.05382,-9.94199 0.58586,-20.4517 3.03125,-30.30469 2.3647,-9.52786 5.55788,-19.17831 11.11133,-27.27344 4.44684,-6.48205 11.09769,-11.17255 17.17187,-16.16211 6.7147,-5.51571 15.37047,-8.72167 21.21484,-15.15234 4.97192,-5.4707 7.91541,-12.52743 11.11133,-19.19336 4.83897,-10.09296 9.64512,-20.39873 12.1211,-31.31445 2.91348,-12.84449 3.03125,-39.39649 3.03125,-39.39649 0,0 -7.4229,20.19822 -11.11328,30.30469 -2.70364,7.40418 -4.39043,15.25717 -8.08008,22.22266 -3.4996,6.60669 -7.43623,13.34163 -13.13282,18.18359 -6.88427,5.85146 -15.22456,12.68251 -24.24218,12.12109 -3.63512,-0.22631 -7.06516,-3.03431 -9.0918,-6.06054 -3.82147,-5.7063 -5.00262,-13.40307 -4.04102,-20.20313 1.43389,-10.13998 9.58345,-18.1034 14.14258,-27.27344 6.97331,-14.02585 11.64017,-29.31182 20.20313,-42.42773 5.35086,-8.195931 19.1914,-22.222658 19.1914,-22.222658 0,0 -15.76669,16.47542 -26.26367,19.19336 -2.62804,0.68047 -6.01857,0.756524 -8.08008,-1.009766 -1.86151,-1.59494 -1.86758,-4.625765 -2.02148,-7.072265 -0.55612,-8.84018 4.04102,-26.263672 4.04102,-26.263672 0,0 -11.51885,18.744312 -12.1211,29.294922 -0.2794,4.89471 3.67709,9.253419 4.04102,14.142579 0.57975,7.78855 0.16075,16.10438 -3.03125,23.23242 -4.00036,8.9332 -14.17638,13.8182 -19.19336,22.22266 -3.87846,6.49721 -7.92033,13.64974 -8.08008,21.21484 -0.17984,8.51646 5.77289,16.04224 8.08008,24.24219 1.21675,4.32445 3.46602,8.66153 3.03125,13.13281 -1.3566,13.95152 -13.21048,24.94138 -17.17383,38.38672 -3.75671,12.74432 -2.26585,26.66147 -6.06055,39.39453 -3.48602,11.69732 -5.54564,25.80661 -15.15234,33.33594 -4.3142,3.38128 -11.0232,4.93639 -16.16211,3.02929 -8.08537,-3.00054 -13.14536,-12.12379 -16.16211,-20.20312 -2.94697,-7.89243 -1.70577,-16.85804 -1.00977,-25.25391 0.68196,-8.22651 2.93545,-16.26309 5.05079,-24.24218 3.08345,-11.63086 6.3578,-23.29181 11.11132,-34.34571 3.33349,-7.75175 8.50324,-14.59947 12.1211,-22.22265 4.20904,-8.86882 7.48732,-18.15188 11.11133,-27.27539 4.13201,-10.4024 8.61006,-20.68702 12.12304,-31.31446 3.17921,-9.61771 6.28067,-19.32648 8.08008,-29.29492 2.04159,-11.31008 2.85045,-22.852299 3.03125,-34.343749 0.28119,-17.87238 1.56561,-36.265672 -3.03125,-53.539062 -1.16179,-4.36559 -6.06055,-12.121094 -6.06055,-12.121094 0,0 1.42153,25.591696 1.00977,38.384766 -0.23929,7.43448 -1.24819,14.826379 -2.01953,22.224609 -1.19536,11.46521 -1.77683,23.04095 -4.04102,34.34375 -1.44447,7.21076 -0.97465,15.90302 -6.06054,21.21484 -3.68194,3.84551 -9.84177,4.67338 -15.15235,5.05078 -3.75515,0.26687 -8.09964,0.23729 -11.11133,-2.02148 -2.40935,-1.80702 -3.4826,-5.12061 -4.04101,-8.08008 -1.37918,-7.30936 -0.0138,-15.07014 2.02148,-22.22461 1.85413,-6.517707 5.99643,-12.152627 9.08985,-18.181638 3.30036,-6.432349 7.56076,-12.424909 10.10156,-19.193359 2.55453,-6.80506 3.80528,-14.051661 5.05078,-21.212891 1.04493,-6.008019 2.02148,-18.183593 2.02148,-18.183593 0,0 -7.37885,23.170503 -12.12304,34.345703 -1.17689,2.77223 -1.59781,6.319108 -4.04102,8.080078 -1.93153,1.39217 -4.84798,1.866219 -7.07031,1.011719 -2.45465,-0.94383 -3.77098,-3.76506 -5.05078,-6.0625 -2.0727,-3.72082 -3.06246,-7.975854 -4.04102,-12.121094 -1.09406,-4.63452 -2.01953,-14.142578 -2.01953,-14.142578 0,0 -1.1931,19.603282 0,29.294922 0.50889,4.13376 2.75174,7.965514 3.03125,12.121093 0.40925,6.084471 -1.40868,12.116244 -2.02148,18.183594 -1.1212,11.101024 -6.42219,22.706814 -3.0293,33.335934 1.88802,5.91474 6.90774,10.76872 12.12109,14.14063 5.01005,3.24042 14.46508,-0.26657 17.17188,5.05078 4.54167,8.92188 -6.093,19.11138 -10.10156,28.28516 -3.49759,8.00442 -6.63884,16.43178 -12.1211,23.23242 -3.30101,4.09484 -6.92043,9.3157 -12.12109,10.10156 -4.32819,0.65402 -8.89217,-2.09741 -12.12305,-5.05078 -5.33615,-4.87781 -7.76176,-12.35088 -10.10156,-19.19141 -3.76242,-10.99962 -4.48481,-22.8277 -6.06055,-34.3457 C 497.30219,109.16342 504.93472,126.32317 499.54608,93.169922 497.59005,85.966386 498.27108,70.1245 496.9949,62.241026 495.69904,54.236006 493.2546,47.41233 489.92459,40.01837 485.52375,30.24672 479.82302,4.6629018 479.82302,4.6629018 Z M 615.93555,661.40625 c 0.0991,4.93991 1.27343,9.95703 1.27343,9.95703 0,0 -0.43231,-4.45991 -1.27343,-9.95703 z m -238.88672,0.0176 c -0.83925,5.48857 -1.27149,9.93945 -1.27149,9.93945 0,0 1.16993,-5.00522 1.27149,-9.93945 z"
       transform="translate(0,308.26772)"
       id="path4136"
       inkscape:connector-curvature="0"
       sodipodi:nodetypes="cssssssssssssssscssssscssssssssssscssssssssssssssssssssscssscsssssssscsssssssssssssssssssssscsssscssssssssssscsssssssssssssssscssssscssssssscsssssssssssssscsssssscscssssssscssscccccssscssssssscscsssssscsssssssssssssscssssssscssssscsssssssssssssssscssssssssssscsssscsssssssssssssssssssssscsssssssscssscssssssssssssssssssssscssssssssssscssssscsssssssssssccssccccccc" />
    <text
       xml:space="preserve"
       style="font-style:normal;font-weight:normal;font-size:20px;line-height:125%;font-family:sans-serif;text-align:center;letter-spacing:0px;word-spacing:0px;text-anchor:middle;fill:#000000;fill-opacity:1;stroke:none;stroke-width:1px;stroke-linecap:butt;stroke-linejoin:miter;stroke-opacity:1"
       x="532.52966"
       y="524.05243"
       id="text4180"
       sodipodi:linespacing="125%"><tspan
         sodipodi:role="line"
         id="tspan4182"
         x="532.52966"
         y="524.05243"
         style="font-style:normal;font-variant:normal;font-weight:normal;font-stretch:normal;font-size:180px;font-family:'Bera Serif';-inkscape-font-specification:'Bera Serif';text-align:center;text-anchor:middle;fill:#ffffff;fill-opacity:1">Taxonomic</tspan><tspan
         sodipodi:role="line"
         x="532.52966"
         y="749.05243"
         style="font-style:normal;font-variant:normal;font-weight:normal;font-stretch:normal;font-size:180px;font-family:'Bera Serif';-inkscape-font-specification:'Bera Serif';text-align:center;text-anchor:middle;fill:#ffffff;fill-opacity:1"
         id="tspan4148">Reference</tspan><tspan
         sodipodi:role="line"
         x="532.52966"
         y="974.05243"
         style="font-style:normal;font-variant:normal;font-weight:normal;font-stretch:normal;font-size:180px;font-family:'Bera Serif';-inkscape-font-specification:'Bera Serif';text-align:center;text-anchor:middle;fill:#ffffff;fill-opacity:1"
         id="tspan4150">Service</tspan></text>
  </g>
</svg>
